<?xml version="1.0" encoding="UTF-8"?>
<svg width="24" height="24" version="1.1" viewBox="0 0 226.77 226.77" xmlns="http://www.w3.org/2000/svg" xmlns:cc="http://creativecommons.org/ns#" xmlns:dc="http://purl.org/dc/elements/1.1/" xmlns:rdf="http://www.w3.org/1999/02/22-rdf-syntax-ns#">
 <g transform="matrix(.28893 0 0 .24605 7.857 -14.084)">
  <path d="m347.74 121.28-328.74 231.87-0.41477 386.88 328.58 230.51 1.1731-288.9-125.26-105.97v109.9l44.552 38.402-0.0296 74.272-156.54-123.72 0.24308-270.35 236.15-169.53z" fill="#404040" fill-rule="evenodd" stroke-width="3.7505px"/>
  <path d="m402.2 121.63 328.74 231.87 0.41477 386.88-328.58 230.51-1.1731-288.9 125.26-105.97v109.9l-44.552 38.402 0.0296 74.272 156.54-123.72-0.24308-270.35-236.15-169.53z" fill="#bfbfbf" fill-rule="evenodd" stroke-width="3.7505px"/>
  <g stroke-width="1.8943">
   <path d="m401.35 827.75c-0.8569-100.38-0.69985-145.01 0.51542-146.45 0.96136-1.1372 29.598-25.684 63.636-54.549l61.889-52.482 0.47311 55.221 0.4731 55.221-5.0018 5.0158c-2.7509 2.7586-12.824 11.59-22.385 19.625l-17.383 14.609-0.0706 35.979c-0.0388 19.788 0.53101 35.685 1.2664 35.325 0.73543-0.3598 35.426-27.589 77.088-60.51l75.751-59.857-0.71352-270.58-234.76-168.5v-115.55l7.0511 5.0147c3.878 2.7582 78.152 55.132 165.05 116.39l158 111.38-0.38643 194.19-0.38639 194.19-159.59 111.96c-87.773 61.578-161.77 113.49-164.44 115.35l-4.851 3.3875-1.2325-144.38z" opacity="0"/>
   <path d="m401.35 827.75c-0.8569-100.38-0.69985-145.01 0.51542-146.45 0.96136-1.1372 29.598-25.684 63.636-54.549l61.889-52.482 0.47311 55.221 0.4731 55.221-5.0018 5.0158c-2.7509 2.7586-12.824 11.59-22.385 19.625l-17.383 14.609-0.0706 35.979c-0.0388 19.788 0.53101 35.685 1.2664 35.325 0.73543-0.3598 35.426-27.589 77.088-60.51l75.751-59.857-0.71352-270.58-234.76-168.5v-115.55l7.0511 5.0147c3.878 2.7582 78.152 55.132 165.05 116.39l158 111.38-0.38643 194.19-0.38639 194.19-159.59 111.96c-87.773 61.578-161.77 113.49-164.44 115.35l-4.851 3.3875-1.2325-144.38z" opacity="0"/>
   <path d="m401.35 827.75c-0.8569-100.38-0.69985-145.01 0.51542-146.45 0.96136-1.1372 29.598-25.684 63.636-54.549l61.889-52.482 0.47311 55.221 0.4731 55.221-5.0018 5.0158c-2.7509 2.7586-12.824 11.59-22.385 19.625l-17.383 14.609-0.0706 35.979c-0.0388 19.788 0.53101 35.685 1.2664 35.325 0.73543-0.3598 35.426-27.589 77.088-60.51l75.751-59.857-0.71352-270.58-234.76-168.5v-115.55l7.0511 5.0147c3.878 2.7582 78.152 55.132 165.05 116.39l158 111.38-0.38643 194.19-0.38639 194.19-159.59 111.96c-87.773 61.578-161.77 113.49-164.44 115.35l-4.851 3.3875-1.2325-144.38z" opacity="0"/>
   <path d="m401.35 827.75c-0.8569-100.38-0.69985-145.01 0.51542-146.45 0.96136-1.1372 29.598-25.684 63.636-54.549l61.889-52.482 0.47311 55.221 0.4731 55.221-5.0018 5.0158c-2.7509 2.7586-12.824 11.59-22.385 19.625l-17.383 14.609-0.0706 35.979c-0.0388 19.788 0.53101 35.685 1.2664 35.325 0.73543-0.3598 35.426-27.589 77.088-60.51l75.751-59.857-0.71352-270.58-234.76-168.5v-115.55l7.0511 5.0147c3.878 2.7582 78.152 55.132 165.05 116.39l158 111.38-0.38643 194.19-0.38639 194.19-159.59 111.96c-87.773 61.578-161.77 113.49-164.44 115.35l-4.851 3.3875-1.2325-144.38z" opacity="0"/>
   <path d="m401.35 827.75c-0.8569-100.38-0.69985-145.01 0.51542-146.45 0.96136-1.1372 29.598-25.684 63.636-54.549l61.889-52.482 0.47311 55.221 0.4731 55.221-5.0018 5.0158c-2.7509 2.7586-12.824 11.59-22.385 19.625l-17.383 14.609-0.0706 35.979c-0.0388 19.788 0.53101 35.685 1.2664 35.325 0.73543-0.3598 35.426-27.589 77.088-60.51l75.751-59.857-0.71352-270.58-234.76-168.5v-115.55l7.0511 5.0147c3.878 2.7582 78.152 55.132 165.05 116.39l158 111.38-0.38643 194.19-0.38639 194.19-159.59 111.96c-87.773 61.578-161.77 113.49-164.44 115.35l-4.851 3.3875-1.2325-144.38z" opacity="0"/>
  </g>
  <rect x="17.321" y="118.21" width="331.83" height="855.36" opacity="0" stroke-width="3.7505"/>
  <rect x="17.321" y="118.21" width="97.887" height="117.26" opacity="0" stroke-width="3.7505"/>
 </g>
 <rect x="108.74" y="210.98" width="11.025" height="28.127" opacity="0"/>
</svg>
